<svg width="782" height="327" viewBox="0 0 782 327" fill="none" xmlns="http://www.w3.org/2000/svg">
<rect x="327" width="34.008" height="327" transform="rotate(90 327 0)" fill="#0B0A0A"/>
<rect x="34.0082" y="327" width="34.008" height="327" transform="rotate(-180 34.0082 327)" fill="#0B0A0A"/>
<rect x="0.00012207" y="327" width="34.008" height="327" transform="rotate(-90 0.00012207 327)" fill="#0B0A0A"/>
<rect x="292.992" y="261.6" width="34.008" height="65.4" fill="#0B0A0A"/>
<rect x="292.992" width="34.008" height="65.4" fill="#0B0A0A"/>
<path d="M175.524 129.678H144V110H230.043V129.678H198.519V216.78H175.524V129.678Z" fill="#0B0A0A"/>
<path d="M263.554 157.593C258.478 157.593 254.67 159.525 252.132 163.39C249.594 167.254 248.325 172.593 248.325 179.407V216.78H227.157V139.898H248.325V152.712C250.356 148.034 252.843 144.729 255.787 142.797C258.833 140.864 262.792 139.898 267.666 139.898H276.194V157.593H263.554Z" fill="#0B0A0A"/>
<path d="M358.83 216.78H337.661V206.102C335.529 209.763 332.382 212.661 328.22 214.797C324.159 216.932 319.488 218 314.209 218C308.524 218 303.549 216.729 299.285 214.186C295.021 211.542 291.67 207.932 289.234 203.356C286.899 198.78 285.731 193.593 285.731 187.797V139.898H307.051V183.068C307.051 187.746 308.422 191.61 311.163 194.661C313.904 197.61 317.458 199.085 321.823 199.085C326.392 199.085 330.149 197.458 333.093 194.203C336.139 190.949 337.661 186.881 337.661 182V139.898H358.83V216.78Z" fill="#0B0A0A"/>
<path d="M403.738 218C394.398 218 386.783 215.559 380.895 210.678C375.006 205.797 371.859 199.186 371.453 190.847H389.728C390.235 194.305 391.707 197.051 394.144 199.085C396.682 201.017 399.88 201.983 403.738 201.983C407.089 201.983 409.779 201.271 411.81 199.847C413.84 198.424 414.855 196.644 414.855 194.508C414.855 191.661 413.637 189.678 411.2 188.559C408.764 187.441 404.906 186.424 399.626 185.508C394.144 184.492 389.677 183.373 386.225 182.153C382.773 180.932 379.778 178.746 377.24 175.593C374.803 172.339 373.585 167.763 373.585 161.864C373.585 157.39 374.753 153.424 377.088 149.966C379.524 146.407 382.824 143.661 386.986 141.729C391.251 139.695 395.971 138.678 401.149 138.678C410.388 138.678 417.85 140.966 423.536 145.542C429.323 150.119 432.369 156.169 432.673 163.695H414.398C413.992 160.542 412.52 158.102 409.982 156.373C407.545 154.542 404.804 153.627 401.758 153.627C398.611 153.627 396.124 154.288 394.296 155.61C392.57 156.831 391.707 158.661 391.707 161.102C391.707 163.949 392.875 165.881 395.21 166.898C397.647 167.814 401.454 168.627 406.632 169.339C412.216 170.153 416.784 171.169 420.338 172.39C423.993 173.508 427.089 175.746 429.627 179.102C432.267 182.458 433.587 187.339 433.587 193.746C433.587 201.068 430.846 206.966 425.363 211.441C419.982 215.814 412.774 218 403.738 218Z" fill="#0B0A0A"/>
<path d="M482.926 216.78C473.992 216.78 466.885 214.339 461.606 209.458C456.326 204.576 453.687 197.712 453.687 188.864V157.593H439.067V139.898H448.509C451.961 139.898 453.687 138.119 453.687 134.559V117.169H475.007V139.898H495.566V157.593H475.007V187.949C475.007 195.271 478.56 198.932 485.667 198.932H495.566V216.78H482.926Z" fill="#0B0A0A"/>
<path d="M541.738 110H566.104L608.898 180.627V110H631.741V216.78H607.375L564.581 146.153V216.78H541.738V110Z" fill="#0B0A0A"/>
<path d="M684.253 218C675.928 218 668.77 216.119 662.78 212.356C656.892 208.492 652.425 203.508 649.379 197.407C646.333 191.305 644.81 184.898 644.81 178.186C644.81 171.373 646.181 164.966 648.922 158.966C651.765 152.966 656.029 148.085 661.714 144.322C667.501 140.559 674.507 138.678 682.73 138.678C691.258 138.678 698.365 140.508 704.051 144.169C709.736 147.831 713.899 152.508 716.538 158.203C719.28 163.898 720.65 169.898 720.65 176.203C720.65 178.542 720.549 180.831 720.346 183.068H665.217C666.029 188.559 668.06 192.881 671.309 196.034C674.659 199.085 678.974 200.61 684.253 200.61C688.517 200.61 692.02 199.797 694.761 198.169C697.502 196.441 699.279 193.949 700.091 190.695H720.802C719.28 198.932 715.168 205.542 708.467 210.525C701.766 215.508 693.695 218 684.253 218ZM699.482 169.644C699.177 165.169 697.553 161.508 694.609 158.661C691.665 155.712 687.705 154.237 682.73 154.237C677.857 154.237 673.999 155.508 671.156 158.051C668.314 160.492 666.435 164.356 665.522 169.644H699.482Z" fill="#0B0A0A"/>
<path d="M769.36 216.78C760.426 216.78 753.319 214.339 748.04 209.458C742.76 204.576 740.121 197.712 740.121 188.864V157.593H725.501V139.898H734.943C738.395 139.898 740.121 138.119 740.121 134.559V117.169H761.441V139.898H782V157.593H761.441V187.949C761.441 195.271 764.994 198.932 772.101 198.932H782V216.78H769.36Z" fill="#0B0A0A"/>
</svg>
